<svg width="80" height="80" viewBox="0 0 80 80" fill="none" xmlns="http://www.w3.org/2000/svg">
<path opacity="0.4" d="M64.4934 18.8666L43.5267 7.56663C41.3267 6.36663 38.66 6.36663 36.4267 7.56663L15.46 18.8666C13.9267 19.7 12.9934 21.3333 12.9934 23.1333C12.9934 24.9333 13.9267 26.5666 15.46 27.4L36.4267 38.7C37.5267 39.3 38.76 39.6 39.96 39.6C41.1934 39.6 42.3934 39.3 43.4934 38.7L64.46 27.4C65.9934 26.5666 66.9267 24.9333 66.9267 23.1333C66.96 21.3333 66.0267 19.7 64.4934 18.8666ZM32.9967 42.6266L13.4967 32.86C11.9967 32.0933 10.2634 32.1933 8.83002 33.06C7.39669 33.9266 6.56335 35.46 6.56335 37.1266V55.56C6.56335 58.76 8.33002 61.6266 11.1967 63.06L30.6967 72.7933C31.3634 73.1266 32.0967 73.2933 32.83 73.2933C33.6967 73.2933 34.5634 73.06 35.33 72.56C36.7634 71.6933 37.5967 70.16 37.5967 68.4933V50.06C37.63 46.9266 35.8634 44.06 32.9967 42.6266ZM73.4334 37.1666V52.4666C73.4 52.4333 73.3667 52.3666 73.3334 52.3333C73.3334 52.3 73.3034 52.2666 73.27 52.2333C73.1367 52.0333 72.97 51.8333 72.8034 51.6666C72.77 51.6333 72.7367 51.5666 72.7034 51.5333C70.0034 48.5333 66.0367 46.6666 61.67 46.6666C57.47 46.6666 53.6367 48.4 50.9034 51.2C48.2002 53.9918 46.6861 57.7238 46.6799 61.6099C46.6737 65.496 48.1758 69.2328 50.87 72.0333L49.3034 72.8333C48.5706 73.1973 47.7567 73.367 46.9395 73.3262C46.1224 73.2853 45.3294 73.0353 44.6367 72.6C43.2367 71.7333 42.37 70.2 42.37 68.5333V50.1333C42.37 46.9333 44.1367 44.0666 47.0034 42.6333L66.5034 32.9C68.0034 32.1333 69.7367 32.2 71.17 33.1C72.57 33.9666 73.4367 35.5 73.4367 37.1666H73.4334Z" fill="#1BB319"/>
<path d="M73.2667 52.1666C71.8669 50.4414 70.0984 49.0518 68.0909 48.1C66.0835 47.1482 63.8883 46.6584 61.6667 46.6666C58.1333 46.6666 54.8667 47.8999 52.3 49.9666C50.5349 51.3616 49.1103 53.14 48.1343 55.1671C47.1583 57.1942 46.6564 59.4168 46.6667 61.6666C46.6667 66.3666 48.8 70.5333 52.1667 73.2666C54.7333 75.3999 58.0667 76.6666 61.6667 76.6666C65.4667 76.6666 68.9 75.2333 71.5667 72.9333C73.1655 71.523 74.4468 69.7895 75.3259 67.8473C76.2051 65.9051 76.6621 63.7985 76.6667 61.6666C76.6667 58.0666 75.4 54.7333 73.2667 52.1666ZM65.1 62.5999C65.1 63.4666 64.6333 64.2999 63.9 64.7333L59.2 67.5333C58.8 67.7666 58.3667 67.8999 57.9 67.8999C57.0667 67.8999 56.2333 67.4666 55.7667 66.6999C55.0667 65.4999 55.4333 63.9666 56.6333 63.2666L60.1 61.1999V56.9999C60.1 55.6333 61.2333 54.4999 62.6 54.4999C63.9667 54.4999 65.1 55.6333 65.1 56.9999V62.5999Z" fill="#1BB319"/>
</svg>
