<svg width="80" height="80" viewBox="0 0 80 80" fill="none" xmlns="http://www.w3.org/2000/svg">
<path d="M60 43.3334C56.8667 43.3334 53.9667 44.4334 51.6667 46.2667C50.102 47.5101 48.8393 49.0918 47.9734 50.893C47.1074 52.6942 46.6606 54.6682 46.6667 56.6667C46.6667 59.1667 47.3667 61.5334 48.6 63.5334C49.7751 65.5083 51.4443 67.1432 53.4432 68.2771C55.4421 69.411 57.7019 70.0048 60 70C63.3667 70 66.4333 68.7667 68.7667 66.6667C69.8 65.8 70.7 64.7334 71.4 63.5334C72.6333 61.5334 73.3333 59.1667 73.3333 56.6667C73.3333 49.3 67.3667 43.3334 60 43.3334ZM66.9 55.2334L59.8 61.8C59.3333 62.2334 58.7 62.4667 58.1 62.4667C57.4667 62.4667 56.8333 62.2334 56.3333 61.7334L53.0333 58.4334C52.5684 57.9629 52.3077 57.3281 52.3077 56.6667C52.3077 56.0053 52.5684 55.3705 53.0333 54.9C54 53.9334 55.6 53.9334 56.5667 54.9L58.1667 56.5L63.5 51.5667C64.5 50.6334 66.1 50.7 67.0333 51.7C67.9667 52.7 67.9 54.2667 66.9 55.2334Z" fill="#1BB319"/>
<path opacity="0.4" d="M70.3 71.6666C70.3 72.6 69.5667 73.3333 68.6334 73.3333H11.3667C10.4333 73.3333 9.70001 72.6 9.70001 71.6666C9.70001 57.8666 23.3 46.6666 40 46.6666C43.4333 46.6666 46.7667 47.1333 49.8333 48.0333C47.8667 50.3666 46.6667 53.4 46.6667 56.6666C46.6667 59.1666 47.3667 61.5333 48.6 63.5333C49.2667 64.6666 50.1333 65.7 51.1334 66.5666C53.4667 68.7 56.5667 70 60 70C63.7333 70 67.1 68.4666 69.5 66C70.0334 67.8 70.3 69.7 70.3 71.6666Z" fill="#1BB319"/>
<path d="M40 40C44.4203 40 48.6595 38.244 51.7851 35.1184C54.9107 31.9928 56.6667 27.7536 56.6667 23.3333C56.6667 18.913 54.9107 14.6738 51.7851 11.5482C48.6595 8.42257 44.4203 6.66663 40 6.66663C35.5797 6.66663 31.3405 8.42257 28.2149 11.5482C25.0893 14.6738 23.3333 18.913 23.3333 23.3333C23.3333 27.7536 25.0893 31.9928 28.2149 35.1184C31.3405 38.244 35.5797 40 40 40Z" fill="#1BB319"/>
</svg>
