<svg width="80" height="80" viewBox="0 0 80 80" fill="none" xmlns="http://www.w3.org/2000/svg">
<path d="M73.3333 20V28.0666C73.3333 33.3333 70 36.6666 64.7333 36.6666H53.3333V13.3666C53.3333 9.66663 56.3667 6.66663 60.0667 6.66663C63.7 6.69996 67.0333 8.16663 69.4333 10.5666C71.8333 13 73.3333 16.3333 73.3333 20Z" fill="#1BB319"/>
<path opacity="0.4" d="M6.66667 23.3333V70C6.66667 72.7666 9.8 74.3333 12 72.6666L17.7 68.4C19.0333 67.4 20.9 67.5333 22.1 68.7333L27.6333 74.3C28.9333 75.6 31.0667 75.6 32.3667 74.3L37.9667 68.7C39.1333 67.5333 41 67.4 42.3 68.4L48 72.6666C50.2 74.3 53.3333 72.7333 53.3333 70V13.3333C53.3333 9.66663 56.3333 6.66663 60 6.66663H20C10 6.66663 6.66667 12.6333 6.66667 20V23.3333Z" fill="#1BB319"/>
<path d="M40 32.5H20C18.6333 32.5 17.5 31.3667 17.5 30C17.5 28.6333 18.6333 27.5 20 27.5H40C41.3667 27.5 42.5 28.6333 42.5 30C42.5 31.3667 41.3667 32.5 40 32.5ZM37.5 45.8333H22.5C21.1333 45.8333 20 44.7 20 43.3333C20 41.9667 21.1333 40.8333 22.5 40.8333H37.5C38.8667 40.8333 40 41.9667 40 43.3333C40 44.7 38.8667 45.8333 37.5 45.8333Z" fill="#1BB319"/>
</svg>
